<svg width="37" height="40" viewBox="0 0 37 40" fill="none" xmlns="http://www.w3.org/2000/svg">
<path d="M24.0095 18.1977L20.3426 16.6375L20.9646 15.0504L22.053 12.3067L26.9378 0L19.0469 9.18628L17.2977 11.2307L10.3786 19.3006L9.45864 20.3766L12.7886 21.8023L16.4555 23.3625L15.8335 24.9496L14.7451 27.6933L9.86031 40L17.7512 30.8137L19.5004 28.7693L26.4195 20.6994L27.3524 19.6234L24.0095 18.1977Z" fill="#FFFCF3"/>
<path d="M34.505 25.232L30.0089 20.5648L29.2833 21.4122L28.3633 22.4882L28.2596 22.6092L32.6521 27.1688C33.6368 28.191 34.1681 29.536 34.1681 30.9751C34.1681 32.4143 33.6239 33.7727 32.6521 34.7815C31.6674 35.8036 30.3717 36.3551 28.9852 36.3551C27.5988 36.3551 26.2902 35.7902 25.3184 34.7815L21.3405 30.6658L19.682 32.5891L19.5784 32.7102L23.4525 36.7182C24.9815 38.3053 26.9769 39.0989 28.9852 39.0989C30.9936 39.0989 32.989 38.3053 34.5179 36.7182C37.5629 33.5575 37.5629 28.4062 34.505 25.232Z" fill="#FFFCF3"/>
<path d="M8.44808 17.5127L8.55174 17.3916L4.1463 12.8321C3.16155 11.8099 2.63031 10.4649 2.63031 9.02578C2.63031 7.58665 3.17451 6.22821 4.1463 5.21946C5.16991 4.15692 6.49154 3.63237 7.82613 3.63237C9.16072 3.63237 10.4824 4.15692 11.493 5.20601L15.4579 9.32168L17.1164 7.39835L17.2201 7.2773L13.3588 3.26923C10.3139 0.1085 5.35131 0.1085 2.29342 3.26923C0.816302 4.81597 0 6.8469 0 9.02578C0 11.1912 0.816302 13.2356 2.29342 14.7689L6.78956 19.436L7.51516 18.5887L8.44808 17.5127Z" fill="#FFFCF3"/>
<path d="M24.9943 15.7104L25.5774 15.9662L24.0354 14.364L23.7245 15.1718L24.9943 15.7104Z" fill="#FFFCF3"/>
<path d="M11.8043 24.2908L11.2212 24.035L12.7632 25.6372L13.0742 24.8294L11.8043 24.2908Z" fill="#FFFCF3"/>
<path d="M26.0959 32.925L24.1264 30.8806C23.7766 30.5174 23.7766 29.9391 24.1264 29.5759C24.4763 29.2128 25.0334 29.2128 25.3833 29.5759L27.3528 31.6203C27.7026 31.9835 27.7026 32.5618 27.3528 32.925C27.0029 33.2881 26.4458 33.2881 26.0959 32.925Z" fill="#FFFCF3"/>
<path d="M29.633 29.2531L27.6636 27.2087C27.3137 26.8456 27.3137 26.2672 27.6636 25.9041C28.0134 25.5409 28.5706 25.5409 28.9204 25.9041L30.8899 27.9484C31.2397 28.3116 31.2397 28.8899 30.8899 29.2531C30.54 29.6162 29.9829 29.6162 29.633 29.2531Z" fill="#FFFCF3"/>
<path d="M11.9593 10.908L9.98977 8.8636C9.63993 8.50046 9.63993 7.92212 9.98977 7.55898C10.3396 7.19584 10.8968 7.19584 11.2466 7.55898L13.2161 9.60334C13.566 9.96648 13.566 10.5448 13.2161 10.908C12.8663 11.2577 12.3091 11.2577 11.9593 10.908Z" fill="#FFFCF3"/>
<path d="M8.3703 14.5796L6.40081 12.5352C6.05097 12.1721 6.05097 11.5938 6.40081 11.2306C6.75065 10.8675 7.30781 10.8675 7.65765 11.2306L9.62714 13.275C9.97699 13.6381 9.97699 14.2165 9.62714 14.5796C9.2773 14.9428 8.70718 14.9428 8.3703 14.5796Z" fill="#FFFCF3"/>
</svg>
