<svg width="150" height="54" viewBox="0 0 150 54" fill="none" xmlns="http://www.w3.org/2000/svg">
<path d="M16.0235 4.12034L143.558 4.34925L134.009 49.673L6.47482 49.4441L16.0235 4.12034ZM11.5435 0L10.9222 2.55069L1.04644 49.3787L0 53.5317H4.21844L135.906 53.7606H138.489L139.111 51.2099L148.954 4.38195L150 0.196206H145.749L14.0942 0H11.5435Z" fill="#FF6E4E"/>
<path d="M136.723 11.9359L137.606 8.04443H128.058L124.035 25.703H125.507L120.896 45.9123L130.543 45.945L131.426 42.0209H126.455L129.594 28.2537H134.14L134.729 25.703H133.257L133.519 24.4277H128.973L131.818 11.9032L136.723 11.9359Z" fill="#FFFCF3"/>
<path d="M24.7546 27.6325L21.8442 40.484C21.7134 41.0072 21.4845 41.4323 21.1575 41.7593C20.8305 42.0536 20.4381 42.2172 19.9802 42.2172C19.5224 42.2172 19.1954 42.0536 18.9992 41.7593C18.803 41.465 18.7376 41.0399 18.8684 40.484L22.2366 25.5069H20.7651L23.5774 13.1459C23.7082 12.6227 23.9371 12.2302 24.2968 11.9032C24.6565 11.5762 25.0489 11.4127 25.5067 11.4127C25.9645 11.4127 26.2589 11.5762 26.4878 11.8705C26.684 12.1648 26.7167 12.59 26.5859 13.1459L24.0025 24.4932H28.646L31.2294 13.1786C32.047 9.48335 30.4446 7.61938 26.357 7.61938C24.3295 7.61938 22.6617 8.1426 21.321 9.18904C19.9802 10.2355 19.0973 11.8051 18.6395 13.8326L15.9907 25.5069H17.4623L14.2249 39.7646C13.767 41.792 13.9632 43.329 14.8135 44.4081C15.6637 45.4873 17.1025 46.0105 19.0973 46.0105C21.0921 46.0105 22.7271 45.5527 23.9698 44.5716C25.2451 43.6233 26.0627 42.2172 26.4878 40.4186L29.3982 27.6325H24.7546Z" fill="#FFFCF3"/>
<path d="M44.8005 25.5396H43.3289C43.3616 25.4088 43.3943 25.2453 43.427 25.1145L46.0758 13.4402C46.5009 11.6089 46.272 10.2028 45.4545 9.28713C44.6043 8.3388 43.2308 7.88098 41.3342 7.88098H34.9902L30.9679 25.5396H32.4395L27.8286 45.7489H32.5049L35.8404 31.1642H37.9006L35.9712 45.7489H40.6802L42.3806 29.1694C43.5579 28.2865 44.3754 27.0765 44.8005 25.5396ZM37.6716 27.4035H36.6906L37.1157 25.5396H35.6442L38.7835 11.7724H39.7645C41.0399 11.7724 41.5304 12.4918 41.2034 13.898L38.62 25.2453C38.5873 25.3434 38.5546 25.4415 38.5219 25.5396H39.9934C39.6664 26.7822 38.8816 27.4035 37.6716 27.4035Z" fill="#FFFCF3"/>
<path d="M56.0823 28.1229L56.6382 25.5722H55.1667L55.461 24.2969H50.9156L53.7605 11.8051H58.6657L59.5486 7.91364H49.9672L45.945 25.5722H47.4165L42.8384 45.7815L52.4852 45.8142L53.3681 41.8901H48.3976L51.5369 28.1229H56.0823Z" fill="#FFFCF3"/>
<path d="M77.1092 25.6049L82.6684 7.94635H77.7305L72.76 25.6049H71.4192L73.9045 7.94635H69.0975L63.4729 25.6049H62.1975L65.2387 7.94635H60.2682L57.7829 25.6049H59.2544L56.4094 45.8142H62.0994L68.0183 27.0765L68.4107 25.6049H69.3918L69.1302 27.0765L66.4487 45.8469H72.1387L78.5154 25.6377L77.1092 25.6049ZM62.3937 34.467H62.034L63.4075 27.1419L63.6691 25.6049H64.9444L64.4539 27.1419L62.3937 34.467ZM67.9529 25.6049H66.9719L69.0321 18.051H69.3264L67.9529 25.6049ZM71.8116 34.5651H71.4519L72.6946 27.1419L72.9235 25.6049H74.2642L73.8391 27.1419L71.8116 34.5651Z" fill="#FFFCF3"/>
<path d="M92.6095 30.641H87.9006L85.6115 40.7456C85.3826 41.792 84.7613 42.3153 83.7475 42.3153C83.257 42.3153 82.93 42.1845 82.7338 41.9228C82.5376 41.6612 82.4722 41.3015 82.5703 40.8764L84.8594 30.8045C85.121 29.6599 85.8731 28.8097 87.1484 28.2865L89.5683 27.4036C90.8764 26.9784 91.9228 26.3898 92.7076 25.6704H91.2361C91.3342 25.5723 91.3996 25.5069 91.4977 25.4088C92.3152 24.5586 92.8711 23.3813 93.1981 21.9098L95.2256 13.0151C95.5853 11.4781 95.3237 10.2028 94.4735 9.22173C93.6233 8.2407 92.1844 7.75018 90.1896 7.75018C88.2276 7.75018 86.6252 8.1753 85.3826 9.05823C84.1399 9.94116 83.3551 11.1511 82.9954 12.6881L81.0006 21.3865H85.6442L87.5735 12.9824C87.8025 12.0013 88.4238 11.5435 89.4375 11.5435C89.8953 11.5435 90.2223 11.6743 90.4185 11.9032C90.6147 12.1321 90.6802 12.4591 90.582 12.8189L88.6854 21.0922C88.4565 22.1387 87.7698 22.9235 86.6579 23.414L84.2053 24.3296C83.1916 24.7221 82.3087 25.1472 81.5892 25.6377H83.0608C82.7011 25.8666 82.3741 26.1282 82.1125 26.3571C81.2622 27.1419 80.6736 28.2865 80.3139 29.8234L77.8613 40.5167C77.4689 42.2499 77.7305 43.6233 78.6134 44.6043C79.4964 45.6181 80.9025 46.1086 82.8319 46.1086C84.7613 46.1086 86.3963 45.6508 87.737 44.7678C89.0778 43.8522 89.8953 42.6096 90.2877 41.0072L92.6095 30.641Z" fill="#FFFCF3"/>
<path d="M105.657 25.6704L108.045 8.01178H100.85L95.1603 25.6704H96.6318L90.1243 45.8797H94.9314L97.5475 36.7234L101.112 36.7561L99.6404 45.847H104.447L107.162 25.605L105.657 25.6704ZM98.6266 32.8973L100.719 25.6377H99.2479L101.374 18.2799L103.172 12.4918H103.532L102.682 18.2799L101.472 25.6377H102.943L101.733 32.8973H98.6266Z" fill="#FFFCF3"/>
<path d="M121.354 25.6704L124.035 13.8326C124.46 11.9686 124.297 10.5298 123.479 9.51603C122.695 8.5023 121.387 8.01178 119.588 8.01178H112.982L108.96 25.6704H110.432L105.886 45.8797H112.492C114.258 45.8797 115.762 45.3892 117.037 44.3754C118.28 43.3617 119.13 41.9228 119.555 40.0589L122.825 25.6377L121.354 25.6704ZM114.781 40.3532C114.65 40.8764 114.421 41.2688 114.094 41.5631C113.767 41.8574 113.342 41.9882 112.917 41.9882H111.478L115.206 25.6704H113.734L116.874 11.9032H118.313C118.738 11.9032 119.065 12.0667 119.294 12.361C119.523 12.6553 119.555 13.0478 119.457 13.571L116.678 25.7031H118.149L114.781 40.3532Z" fill="#FFFCF3"/>
</svg>
