<svg width="29" height="40" viewBox="0 0 29 40" fill="none" xmlns="http://www.w3.org/2000/svg">
<mask id="path-1-inside-1" fill="white">
<path fill-rule="evenodd" clip-rule="evenodd" d="M27.1961 20.9064C28.221 18.9365 28.8 16.6997 28.8 14.3283C28.8 6.41499 22.3529 0 14.4 0C6.4471 0 0 6.41499 0 14.3283C0 16.6997 0.578992 18.9366 1.60399 20.9066C1.55048 21.0302 1.84777 22.5083 14.3962 40C26.9494 22.5015 27.2486 21.029 27.1961 20.9064Z"/>
</mask>
<path d="M27.1961 20.9064L24.5347 19.5218L23.8788 20.7825L24.4389 22.0887L27.1961 20.9064ZM1.60399 20.9066L4.3571 22.0984L4.92423 20.7883L4.26531 19.5219L1.60399 20.9066ZM14.3962 40L11.9586 41.7487L14.3963 45.1466L16.8339 41.7487L14.3962 40ZM25.8 14.3283C25.8 16.2058 25.3427 17.9689 24.5347 19.5218L29.8574 22.2911C31.0994 19.9041 31.8 17.1935 31.8 14.3283H25.8ZM14.4 3C20.7102 3 25.8 8.08595 25.8 14.3283H31.8C31.8 4.74403 23.9956 -3 14.4 -3V3ZM3 14.3283C3 8.08595 8.08981 3 14.4 3V-3C4.80439 -3 -3 4.74403 -3 14.3283H3ZM4.26531 19.5219C3.45732 17.969 3 16.2059 3 14.3283H-3C-3 17.1936 -2.29934 19.9042 -1.05733 22.2913L4.26531 19.5219ZM-1.14911 19.7148C-1.44782 20.4048 -1.40866 21.0149 -1.38257 21.263C-1.3513 21.5604 -1.28336 21.8033 -1.23495 21.9553C-1.1372 22.2623 -1.00031 22.561 -0.863239 22.8328C-0.579018 23.3966 -0.0913915 24.239 0.743305 25.5508C2.42532 28.1942 5.67583 32.991 11.9586 41.7487L16.8338 38.2513C10.5682 29.5174 7.3958 24.8292 5.80544 22.3298C5.00394 21.0701 4.643 20.4265 4.49439 20.1318C4.41505 19.9744 4.43946 20.0006 4.48218 20.1348C4.50306 20.2004 4.55785 20.3818 4.58452 20.6354C4.60601 20.8397 4.64912 21.4238 4.3571 22.0984L-1.14911 19.7148ZM16.8339 41.7487C23.1189 32.9876 26.3708 28.1911 28.0536 25.5489C28.8888 24.2377 29.3765 23.3967 29.6607 22.8347C29.7978 22.5636 29.9345 22.2665 30.0324 21.9615C30.0809 21.8106 30.1492 21.5689 30.1813 21.273C30.208 21.0277 30.2502 20.4166 29.9533 19.7242L24.4389 22.0887C24.1485 21.4116 24.1945 20.8264 24.2165 20.6246C24.2439 20.3723 24.2989 20.192 24.3197 20.1272C24.3623 19.9945 24.3862 19.9693 24.3065 20.1269C24.1571 20.4223 23.7952 21.0661 22.993 22.3256C21.4011 24.825 18.2267 29.5139 11.9586 38.2513L16.8339 41.7487Z" fill="#FFFCF3" mask="url(#path-1-inside-1)"/>
<ellipse cx="14.4" cy="14.3283" rx="3.2" ry="3.18406" fill="#FFFCF3"/>
</svg>
