<svg width="406" height="132" viewBox="0 0 406 132" fill="none" xmlns="http://www.w3.org/2000/svg">
<path d="M241.989 2.31637C212.069 -2.20037 181.611 0.2016 152.181 6.80701C123.04 13.3341 94.424 23.5903 67.3585 36.2224C54.8654 42.0576 42.7058 48.8022 31.8631 57.4006C26.418 61.7128 20.9815 66.4819 16.7276 72.0169C13.0845 76.7512 10.3251 82.8954 12.6383 88.8307C14.54 93.7173 19.1361 96.8416 23.7365 98.9172C29.9874 101.754 36.8578 103.403 43.4985 105.031C58.4695 108.699 73.7696 110.883 89.1044 112.298C121.195 115.257 153.619 115.779 185.831 115.848C218.233 115.922 250.718 115.2 283.047 112.92C313.725 110.744 344.455 106.741 374.016 97.9903C380.47 96.0801 387.146 94.2307 393.171 91.163C397.698 88.8611 402.398 85.6237 404.711 80.9285C407.198 75.8853 405.868 70.4852 402.584 66.173C398.461 60.7424 392.807 56.2344 387.367 52.205C376.052 43.8199 363.333 37.5321 350.359 32.1886C336.99 26.6989 323.213 22.2687 309.155 18.9387C281.171 12.2723 252.286 9.80076 223.561 10.5318C194.378 11.2933 165.306 15.3618 136.846 21.8802C108.022 28.4856 79.3404 37.2363 52.3745 49.5463C45.4435 52.7098 38.6382 56.1343 32.0147 59.8678C26.0151 63.2358 20.0068 66.7474 14.6136 71.0509C4.97089 78.7398 -3.36362 91.5938 1.36245 104.365C5.85459 116.51 20.4573 121.04 31.7202 124.02C46.5308 127.937 61.9176 129.338 77.1485 130.447C108.622 132.735 140.226 132.494 171.661 129.729C203.026 126.992 234.124 121.754 264.662 114.064C279.347 110.357 294.023 106.267 308.089 100.575C314.909 97.854 321.538 94.6717 327.929 91.0498C333.885 87.634 339.751 83.8092 344.607 78.9095C353.361 70.0762 358.542 56.0908 351.351 44.6902C348.107 39.5468 343.121 35.7524 338.009 32.6368C331.938 28.9901 325.535 25.9304 318.888 23.4989C305.416 18.4818 291.216 15.7535 276.995 13.952C261.439 11.9197 245.772 10.8545 230.085 10.7624C200.667 10.7015 170.912 15.1356 144.115 27.8068C132.191 33.3864 121.14 40.6804 111.31 49.4593C110.686 50.0206 111.608 50.9431 112.228 50.3818C132.267 32.3453 157.713 21.4277 183.925 16.2147C214.018 10.2315 245.273 11.3412 275.583 15.0529C289.583 16.7673 303.571 19.3738 316.891 24.1299C323.597 26.4929 330.066 29.4869 336.212 33.072C341.722 36.3181 347.215 40.2561 350.55 45.8607C358.248 58.8017 349.744 73.4354 339.452 81.7901C328.328 90.8192 314.613 96.9155 301.271 101.806C287.517 106.824 273.3 110.631 259.091 114.064C244.259 117.661 229.305 120.678 214.23 123.115C184.145 127.977 153.732 130.503 123.261 130.674C108.134 130.758 93.019 130.26 77.9152 129.181C62.9096 128.106 47.7741 126.762 33.1584 123.028C21.393 120.021 5.05753 115.239 1.89526 101.589C-1.43594 87.2293 9.98286 75.3457 20.8515 68.1093C45.0493 52.0092 72.9726 41.4136 100.593 32.9414C127.645 24.6433 155.365 18.4035 183.444 14.8875C211.142 11.4064 239.225 10.5971 267.049 13.2819C294.873 15.9667 322.428 22.2631 348.397 32.763C361.206 37.9368 373.777 44.0375 385.058 52.0962C390.62 56.0691 396.191 60.5379 400.652 65.7727C405.114 71.0074 406.336 77.5214 401.805 83.0651C398.214 87.46 392.777 90.2536 387.566 92.203C380.799 94.7485 373.79 96.7763 366.816 98.6604C352.469 102.474 337.904 105.409 323.203 107.45C293.127 111.741 262.682 113.107 232.346 113.929C200.833 114.8 169.313 114.714 137.786 113.673C107.359 112.668 76.607 111.349 46.8167 104.456C40.0374 102.886 33.115 101.215 26.6129 98.6909C21.3583 96.6544 15.5103 93.4388 13.6433 87.7123C11.2824 80.5587 16.5803 73.6835 21.2284 68.8099C25.9757 63.8658 31.1542 59.3587 36.7018 55.3424C47.5618 47.4098 59.5308 41.1438 71.7553 35.6306C84.9762 29.6692 98.5176 24.3518 112.228 19.6262C140.216 9.97046 169.361 2.99954 199 1.53748C213.246 0.798853 227.53 1.47954 241.643 3.56957C242.461 3.69576 242.816 2.43821 241.989 2.31202V2.31637Z" fill="#FF522D"/>
</svg>
