<svg width="40" height="40" viewBox="0 0 40 40" fill="none" xmlns="http://www.w3.org/2000/svg">
<path d="M12.488 35.4824C11.418 36.552 10.0101 37.129 8.50368 37.129C6.99723 37.129 5.57526 36.5379 4.51934 35.4824C3.44934 34.4128 2.8721 33.0054 2.8721 31.4996C2.8721 29.9937 3.46342 28.5723 4.51934 27.5168L8.06723 23.9703L6.03987 21.9437L2.49197 25.4902C0.886974 27.0946 0 29.2338 0 31.4996C0 33.7654 0.886974 35.9046 2.49197 37.5089C4.15329 39.1696 6.32144 39.9999 8.50368 39.9999C10.6859 39.9999 12.8541 39.1696 14.5154 37.5089L18.0633 33.9624L16.0359 31.9359L12.488 35.4824Z" fill="#FFFCF3"/>
<path d="M27.5101 4.53546C28.6083 3.43774 30.0584 2.88887 31.4944 2.88887C32.9446 2.88887 34.3806 3.43774 35.4788 4.53546C36.5488 5.60505 37.126 7.01239 37.126 8.51825C37.126 10.0241 36.5347 11.4455 35.4788 12.501L31.9591 16.0194L33.9864 18.046L37.5061 14.5276C39.1111 12.9232 39.9981 10.7841 39.9981 8.51825C39.9981 6.25243 39.1111 4.11326 37.5061 2.50889C34.1976 -0.798373 28.7913 -0.798373 25.4827 2.50889L21.963 6.02725L23.9904 8.05383L27.5101 4.53546Z" fill="#FFFCF3"/>
<path d="M37.5064 25.4764L32.6632 20.621L32.0297 19.9877L31.016 18.9744L30.0023 17.9612L22.0337 9.99563L21.02 8.98234L20.0063 7.96906L18.9363 6.89948L14.5155 2.48043C11.207 -0.826812 5.80064 -0.826812 2.49209 2.48043C-0.816456 5.78768 -0.816456 11.1919 2.49209 14.4991L6.91288 18.9182L7.98288 19.9877L8.99656 21.001L10.0102 22.0143L17.993 29.9939L19.0067 31.0072L20.0204 32.0205L20.6539 32.6538L25.4971 37.495C27.1584 39.1557 29.3265 39.986 31.5088 39.986C33.691 39.986 35.8592 39.1557 37.5205 37.495C40.829 34.1737 40.829 28.7836 37.5064 25.4764ZM24.5256 20.9869C24.1173 21.3951 23.4415 21.3951 23.0333 20.9869C22.625 20.5788 22.625 19.9033 23.0333 19.4952C23.4415 19.087 24.1173 19.087 24.5256 19.4952C24.9339 19.9033 24.9339 20.5788 24.5256 20.9869ZM20.3864 16.8494C19.9781 17.2575 19.3023 17.2575 18.8941 16.8494C18.4858 16.4412 18.4858 15.7657 18.8941 15.3576C19.3023 14.9495 19.9781 14.9495 20.3864 15.3576C20.7947 15.7657 20.7947 16.4272 20.3864 16.8494ZM21.1889 22.8306C21.5972 23.2387 21.5972 23.9142 21.1889 24.3223C20.7806 24.7305 20.1048 24.7305 19.6966 24.3223C19.2883 23.9142 19.2883 23.2387 19.6966 22.8306C20.1048 22.4224 20.7666 22.4224 21.1889 22.8306ZM15.5433 18.693C15.9516 18.2849 16.6273 18.2849 17.0356 18.693C17.4439 19.1011 17.4439 19.7766 17.0356 20.1848C16.6273 20.5929 15.9516 20.5929 15.5433 20.1848C15.135 19.7766 15.135 19.1011 15.5433 18.693ZM17.9367 9.96748L17.9789 10.0097L18.9926 11.023L19.4572 11.4874L18.5702 12.374L11.4745 19.467L11.0098 19.0026L9.99617 17.9893L9.95393 17.9471L17.9367 9.96748ZM22.0618 30.0221L22.0337 29.9939L21.02 28.9806L20.5554 28.5162L20.6398 28.3895L28.51 20.5225L28.9886 21.001L30.0023 22.0143L30.0305 22.0424L22.0618 30.0221Z" fill="#FFFCF3"/>
</svg>
